<?xml version="1.0" encoding="UTF-8" standalone="no"?>
<svg
   width="119"
   height="50"
   viewBox="0 0 119 50"
   fill="none"
   version="1.1"
   id="svg10"
   sodipodi:docname="667053e5a5e62323d63ece25_Logos.svg"
   inkscape:version="1.4 (86a8ad7, 2024-10-11)"
   xmlns:inkscape="http://www.inkscape.org/namespaces/inkscape"
   xmlns:sodipodi="http://sodipodi.sourceforge.net/DTD/sodipodi-0.dtd"
   xmlns="http://www.w3.org/2000/svg"
   xmlns:svg="http://www.w3.org/2000/svg">
  <sodipodi:namedview
     id="namedview10"
     pagecolor="#ffffff"
     bordercolor="#000000"
     borderopacity="0.25"
     inkscape:showpageshadow="2"
     inkscape:pageopacity="0.0"
     inkscape:pagecheckerboard="true"
     inkscape:deskcolor="#d1d1d1"
     showgrid="false"
     inkscape:zoom="7.4621849"
     inkscape:cx="54.74268"
     inkscape:cy="15.880068"
     inkscape:window-width="1920"
     inkscape:window-height="1017"
     inkscape:window-x="-8"
     inkscape:window-y="-8"
     inkscape:window-maximized="1"
     inkscape:current-layer="svg10">
    <inkscape:grid
       id="grid10"
       units="px"
       originx="0"
       originy="0"
       spacingx="1"
       spacingy="1"
       empcolor="#0099e5"
       empopacity="0.30196078"
       color="#0099e5"
       opacity="0.14901961"
       empspacing="5"
       enabled="true"
       visible="false" />
  </sodipodi:namedview>
  <path
     d="M9.11096 20.574C7.4104 19.5625 6.07422 20.3736 6.07422 22.3093V38.3035C6.07422 38.5897 6.35221 38.7934 6.6251 38.7073L10.4565 37.4976C10.7211 37.4141 10.9008 37.1766 10.9004 36.8992C10.8972 34.4533 10.8824 23.0143 10.8824 22.2511C10.8824 22.2511 10.2504 21.4921 10.1202 21.362C9.65447 20.8539 9.11096 20.574 9.11096 20.574Z"
     fill="black"
     id="path1" />
  <path
     d="M9.11096 20.574C7.4104 19.5625 6.07422 20.3736 6.07422 22.3093V38.3035C6.07422 38.5897 6.35221 38.7934 6.6251 38.7073L10.4565 37.4976C10.7211 37.4141 10.9008 37.1766 10.9004 36.8992C10.8972 34.4533 10.8824 23.0143 10.8824 22.2511C10.8824 22.2511 10.2504 21.4921 10.1202 21.362C9.65447 20.8539 9.11096 20.574 9.11096 20.574Z"
     fill="url(#paint0_linear_12067_46145)"
     id="path2" />
  <path
     d="M9.11096 20.574C7.4104 19.5625 6.07422 20.3736 6.07422 22.3093V38.3035C6.07422 38.5897 6.35221 38.7934 6.6251 38.7073L10.4565 37.4976C10.7211 37.4141 10.9008 37.1766 10.9004 36.8992C10.8972 34.4533 10.8824 23.0143 10.8824 22.2511C10.8824 22.2511 10.2504 21.4921 10.1202 21.362C9.65447 20.8539 9.11096 20.574 9.11096 20.574Z"
     fill="url(#paint1_linear_12067_46145)"
     id="path3" />
  <path
     d="M15.3081 4.44671C14.9418 4.23892 14.5118 4.19224 14.107 4.30809C12.4317 4.78744 9.88177 5.54026 9.88177 5.54026L4.84945 6.94726C3.82276 7.23565 2.03393 7.73955 0.939564 8.05693C0.581475 8.16078 0.52399 8.6429 0.846881 8.82933L12.1264 15.3444C14.5799 16.9216 17.9621 20.6815 18.1812 25.4035C18.1812 32.0801 18.1975 42.7435 18.2017 45.3283C18.2021 45.6149 18.4812 45.8171 18.7542 45.7297L22.5842 44.5034C22.8476 44.419 23.0262 44.1819 23.0256 43.9053C23.0211 41.5298 23.0004 30.4368 23.0004 23.7825C23.0004 19.4276 18.7858 14.8011 16.9457 13.9074C15.666 13.175 13.2153 11.7561 10.8498 10.3883C10.7849 10.3508 10.7157 10.3184 10.6592 10.278C9.83763 9.69147 9.90667 8.82468 10.8609 8.27377C11.8583 7.6979 13.4841 7.66714 14.4993 8.21107C14.5222 8.22333 14.5448 8.23588 14.567 8.24873C14.5887 8.26125 14.6099 8.27396 14.6307 8.28683C17.2475 9.79628 20.299 11.5579 21.9977 12.5437C24.4511 14.1209 27.8445 17.8784 28.0635 22.6005C28.0635 29.2897 28.0932 39.9333 28.1006 42.4803C28.1014 42.7616 28.3712 42.9634 28.6414 42.8854L32.4493 41.7857C32.7215 41.707 32.9087 41.4655 32.9082 41.1821C32.9035 38.767 32.8828 27.6235 32.8828 20.9794C32.8828 16.6669 28.6577 12.0684 26.8281 11.1043C24.3349 9.67742 17.4001 5.63347 15.3081 4.44671Z"
     fill="url(#paint2_linear_12067_46145)"
     id="path4" />
  <defs
     id="defs10">
    <linearGradient
       id="paint0_linear_12067_46145"
       x1="8.48762"
       y1="20.1367"
       x2="8.48762"
       y2="38.8812"
       gradientUnits="userSpaceOnUse">
      <stop
         stop-color="#45EDBA"
         id="stop5" />
      <stop
         offset="1"
         stop-color="#11AF7F"
         id="stop6" />
    </linearGradient>
    <linearGradient
       id="paint1_linear_12067_46145"
       x1="8.49214"
       y1="7.37158"
       x2="8.49214"
       y2="41.4392"
       gradientUnits="userSpaceOnUse">
      <stop
         stop-color="#08F7DB"
         id="stop7" />
      <stop
         offset="1"
         stop-color="#0F81F0"
         id="stop8" />
    </linearGradient>
    <linearGradient
       id="paint2_linear_12067_46145"
       x1="16.8017"
       y1="4.24807"
       x2="16.8017"
       y2="50.6425"
       gradientUnits="userSpaceOnUse">
      <stop
         stop-color="#08F7DB"
         id="stop9" />
      <stop
         offset="1"
         stop-color="#0F81F0"
         id="stop10" />
    </linearGradient>
  </defs>
  <text
     xml:space="preserve"
     style="font-size:24px;font-family:Corbel;-inkscape-font-specification:Corbel;text-align:start;writing-mode:lr-tb;direction:ltr;text-anchor:start;fill:#eaecf9"
     x="38.058556"
     y="37.254505"
     id="text10"><tspan
       sodipodi:role="line"
       id="tspan10"
       x="38.058556"
       y="37.254505"
       style="fill:#ffffff;fill-opacity:1">Astra AI</tspan></text>
</svg>
